<?xml version="1.0" encoding="UTF-8"?>
<svg id="Layer_1" data-name="Layer 1" xmlns="http://www.w3.org/2000/svg" viewBox="0 0 1700 377.17">
  <defs>
    <style>
      .cls-1 {
        fill: #7e0080;
      }

      .cls-2, .cls-3 {
        fill: #fff;
      }

      .cls-3 {
        font-family: FONTSPRINGDEMO-RionaSansBoldRegular, 'FONTSPRING DEMO - Riona Sans Bold';
        font-size: 380px;
      }
    </style>
  </defs>
  <path class="cls-1" d="M1655.69,377.17c-5.19-.19-10.51-.29-15.81-.62-5.08-.32-10.15-.88-15.21-1.38-1.85-.18-3.7-.43-5.53-.78-2.85-.54-4.34-2.07-4.79-4.95-.47-3.04-.86-6.09-1.22-9.15-.34-2.99-.64-5.99-.87-8.99-.23-3.05-.45-6.11-.51-9.18-.11-4.81-.18-9.63-.1-14.44.06-4.04.3-8.09.57-12.12.23-3.44.56-6.87.93-10.29.3-2.79.7-5.58,1.09-8.36.1-.7.3-1.4.51-2.08.64-2.08,2.19-3.13,4.23-3.48,2.03-.34,4.08-.58,6.13-.81,2.55-.29,5.1-.54,7.65-.77,2.35-.21,4.71-.42,7.07-.51,4.98-.2,9.95-.46,14.93-.46,5.36,0,10.73.19,16.08.44,3.91.18,7.81.54,11.7.92,3.18.31,6.34.75,9.51,1.18.71.1,1.43.34,2.1.61,1.78.73,2.68,2.21,3.02,4.01.34,1.79.59,3.61.81,5.42.35,2.82.67,5.65.96,8.48.21,2.1.42,4.21.52,6.32.23,5.11.51,10.22.53,15.33.02,5.19-.17,10.39-.41,15.58-.18,3.85-.53,7.7-.92,11.55-.35,3.42-.84,6.83-1.29,10.25-.08.62-.27,1.23-.44,1.84-.6,2.22-2.17,3.38-4.34,3.74-2.05.34-4.12.58-6.18.81-2.53.28-5.06.54-7.6.76-2.35.21-4.71.41-7.07.52-5.31.23-10.62.4-16.05.6h0Z"/>
  <text class="cls-3" transform="translate(15.99 289.2)"><tspan x="0" y="0">pois</tspan></text>
  <g>
    <path class="cls-2" d="M814.63,102.91l1.36,4.88s4.4-5.76,12.64-5.76c9.52,0,16.24,7.52,16.24,20.96,0,15.92-9.36,22.96-21.44,22.96-3.44,0-5.84-.8-6.64-.88l.16,2.48v14.72h-12.4v-59.36h10.08ZM816.95,135.31s2.48,1.04,5.76,1.04c6.56,0,9.76-4,9.76-12.32,0-7.44-2.64-12-8-12-4.32,0-7.52,3.12-7.52,3.12v20.16Z"/>
    <path class="cls-2" d="M872.87,144.35c-.8.48-3.44,1.6-7.84,1.6-9.52,0-12.32-5.6-12.32-13.44v-45.92h12.4v44.56c0,3.84,1.52,5.12,4.4,5.12,1.76,0,2.8-.4,2.8-.4l.56,8.48Z"/>
    <path class="cls-2" d="M880.7,105.07s6.8-3.04,16.96-3.04c11.04,0,17.92,3.6,17.92,15.04v28h-9.84l-1.04-4.56s-4.48,5.44-13.2,5.44c-7.92,0-13.44-4.48-13.44-12.08,0-8,6.16-13.36,18.4-13.36,2.64,0,5.92.24,6.72.32v-2.64c0-4.32-2.16-6.48-8.4-6.48-7.12,0-12.32,2.8-12.32,2.8l-1.76-9.44ZM903.18,128.67s-2.16-.48-5.2-.48c-4,0-7.68.8-7.68,4.64,0,3.6,3.12,4.24,5.36,4.24,4.88,0,7.52-3.04,7.52-3.04v-5.36Z"/>
    <path class="cls-2" d="M946.87,111.79c-6.56,0-11.44,3.12-11.44,12.24s4.96,12.16,11.52,12.16c4.4,0,7.68-1.36,7.68-1.36l1.76,9.04s-4.72,2.08-11.68,2.08c-13.36,0-21.68-7.52-21.68-21.92s8.4-22,21.92-22c7.04,0,11.44,2,11.44,2l-1.76,9.2s-3.36-1.44-7.76-1.44Z"/>
    <path class="cls-2" d="M999.03,143.07s-6.4,2.88-15.6,2.88c-15.52,0-21.2-9.04-21.2-21.36,0-13.84,7.2-22.56,20.48-22.56,12.48,0,18.32,7.76,18.32,17.92,0,3.76-.8,7.68-.8,7.68h-25.52c.4,6.4,4.4,8.96,11.12,8.96s11.52-2.4,11.52-2.4l1.68,8.88ZM989.03,118.75c0-4.88-2.24-7.76-6.8-7.76s-7.2,2.64-7.52,8.64h14.32v-.88Z"/>
    <path class="cls-2" d="M1019.34,102.91l1.44,4.72s4.56-5.6,13.28-5.6c5.44,0,9.28,2.08,11.44,5.76.8-.72,6.16-5.76,14.56-5.76,9.04,0,13.52,6.08,13.52,15.68v27.36h-12.48v-26.24c0-4.56-1.68-6.88-5.76-6.88-4.4,0-7.52,2.8-7.84,3.12.08.48.16,2.64.16,3.2v26.8h-12.48v-26.24c0-4.56-1.76-6.88-5.84-6.88-4.56,0-7.6,3.12-7.6,3.12v30h-12.4v-42.16h10Z"/>
    <path class="cls-2" d="M1117.74,143.07s-6.4,2.88-15.6,2.88c-15.52,0-21.2-9.04-21.2-21.36,0-13.84,7.2-22.56,20.48-22.56,12.48,0,18.32,7.76,18.32,17.92,0,3.76-.8,7.68-.8,7.68h-25.52c.4,6.4,4.4,8.96,11.12,8.96s11.52-2.4,11.52-2.4l1.68,8.88ZM1107.74,118.75c0-4.88-2.24-7.76-6.8-7.76s-7.2,2.64-7.52,8.64h14.32v-.88Z"/>
    <path class="cls-2" d="M1138.06,102.91l1.44,4.72s5.12-5.6,13.84-5.6,14,6.08,14,15.68v27.36h-12.4v-26.24c0-4.56-2.08-6.88-6.24-6.88-4.64,0-8.24,3.12-8.24,3.12v30h-12.4v-42.16h10Z"/>
    <path class="cls-2" d="M1202.14,144.11s-4,1.84-10,1.84c-8.48,0-13.76-3.76-13.76-14.96v-18.32h-4.96v-9.76h5.2l1.44-10.88h10.8v10.88h10.8l-.4,9.76h-10.32v18.32c0,3.52,2,5.12,5.36,5.12,2.96,0,4.8-1.12,4.8-1.12l1.04,9.12Z"/>
    <path class="cls-2" d="M1224.7,123.95c0-13.36,7.52-21.92,21.12-21.92s21.2,8.48,21.2,21.92-7.6,22-21.2,22-21.12-8.56-21.12-22ZM1254.62,123.95c0-7.84-2.88-12.32-8.8-12.32s-8.72,4.48-8.72,12.32,2.88,12.4,8.72,12.4,8.8-4.48,8.8-12.4Z"/>
    <path class="cls-2" d="M1284.94,102.91l1.36,4.88s4.4-5.76,12.64-5.76c9.52,0,16.24,7.52,16.24,20.96,0,15.92-9.36,22.96-21.44,22.96-3.44,0-5.84-.8-6.64-.88l.16,2.48v14.72h-12.4v-59.36h10.08ZM1287.26,135.31s2.48,1.04,5.76,1.04c6.56,0,9.76-4,9.76-12.32,0-7.44-2.64-12-8-12-4.32,0-7.52,3.12-7.52,3.12v20.16Z"/>
    <path class="cls-2" d="M1333.1,102.91l1.36,4.88s4.4-5.76,12.64-5.76c9.52,0,16.24,7.52,16.24,20.96,0,15.92-9.36,22.96-21.44,22.96-3.44,0-5.84-.8-6.64-.88l.16,2.48v14.72h-12.4v-59.36h10.08ZM1335.42,135.31s2.48,1.04,5.76,1.04c6.56,0,9.76-4,9.76-12.32,0-7.44-2.64-12-8-12-4.32,0-7.52,3.12-7.52,3.12v20.16Z"/>
    <path class="cls-2" d="M1369.42,123.95c0-13.36,7.52-21.92,21.12-21.92s21.2,8.48,21.2,21.92-7.6,22-21.2,22-21.12-8.56-21.12-22ZM1399.34,123.95c0-7.84-2.88-12.32-8.8-12.32s-8.72,4.48-8.72,12.32,2.88,12.4,8.72,12.4,8.8-4.48,8.8-12.4Z"/>
    <path class="cls-2" d="M1429.58,102.91l1.44,4.88c2.72-3.2,7.28-5.76,14.08-5.76l-.4,10.8s-.72-.08-2.24-.08c-6,0-9.6,2.24-10.48,3.36v28.96h-12.4v-42.16h10Z"/>
    <path class="cls-2" d="M1477.42,144.11s-4,1.84-10,1.84c-8.48,0-13.76-3.76-13.76-14.96v-18.32h-4.96v-9.76h5.2l1.44-10.88h10.8v10.88h10.8l-.4,9.76h-10.32v18.32c0,3.52,2,5.12,5.36,5.12,2.96,0,4.8-1.12,4.8-1.12l1.04,9.12Z"/>
    <path class="cls-2" d="M1496.94,102.91v26.24c0,4.56,2.08,6.88,6.24,6.88,4.64,0,8.24-3.12,8.24-3.12v-30h12.4v42.16h-10l-1.44-4.72s-5.12,5.6-13.84,5.6-14-6.08-14-15.68v-27.36h12.4Z"/>
    <path class="cls-2" d="M1543.34,102.91l1.44,4.72s5.12-5.6,13.84-5.6,14,6.08,14,15.68v27.36h-12.4v-26.24c0-4.56-2.08-6.88-6.24-6.88-4.64,0-8.24,3.12-8.24,3.12v30h-12.4v-42.16h10Z"/>
    <path class="cls-2" d="M1587.98,98.27c-5.04,0-7.04-2.64-7.04-6.32s2-6.24,7.04-6.24,6.96,2.64,6.96,6.24-2,6.32-6.96,6.32ZM1581.74,145.07v-42.16h12.4v42.16h-12.4Z"/>
    <path class="cls-2" d="M1629.42,144.11s-4,1.84-10,1.84c-8.48,0-13.76-3.76-13.76-14.96v-18.32h-4.96v-9.76h5.2l1.44-10.88h10.8v10.88h10.8l-.4,9.76h-10.32v18.32c0,3.52,2,5.12,5.36,5.12,2.96,0,4.8-1.12,4.8-1.12l1.04,9.12Z"/>
    <path class="cls-2" d="M1635.01,151.87s1.84.8,4.48.8c6.56,0,7.92-5.36,8.8-7.76l-15.04-42h12.96l6.4,22.72,1.6,9.04,8.88-31.76h12.48l-15.36,43.44c-3.76,10.48-8.88,15.92-19.28,15.92-4.4,0-7.36-.96-7.36-.96l1.44-9.44Z"/>
    <path class="cls-2" d="M810.79,194.27c-5.04,0-7.04-2.64-7.04-6.32s2-6.24,7.04-6.24,6.96,2.64,6.96,6.24-2,6.32-6.96,6.32ZM804.55,241.07v-42.16h12.4v42.16h-12.4Z"/>
    <path class="cls-2" d="M836.55,198.91l1.44,4.72s5.12-5.6,13.84-5.6,14,6.08,14,15.68v27.36h-12.4v-26.24c0-4.56-2.08-6.88-6.24-6.88-4.64,0-8.24,3.12-8.24,3.12v30h-12.4v-42.16h10Z"/>
    <path class="cls-2" d="M876.87,241.07v-32.4h-4.96v-9.76h4.96v-1.84c0-13.2,8.96-15.36,17.2-15.36,4.96,0,8.08,1.12,8.08,1.12l-1.68,9.36s-1.68-.8-4.4-.8c-4.16,0-6.8.96-6.8,6.08v1.44h11.28v9.76h-11.28v32.4h-12.4Z"/>
    <path class="cls-2" d="M905.27,219.95c0-13.36,7.52-21.92,21.12-21.92s21.2,8.48,21.2,21.92-7.6,22-21.2,22-21.12-8.56-21.12-22ZM935.19,219.95c0-7.84-2.88-12.32-8.8-12.32s-8.72,4.48-8.72,12.32,2.88,12.4,8.72,12.4,8.8-4.48,8.8-12.4Z"/>
    <path class="cls-2" d="M965.43,198.91l1.44,4.88c2.72-3.2,7.28-5.76,14.08-5.76l-.4,10.8s-.72-.08-2.24-.08c-6,0-9.6,2.24-10.48,3.36v28.96h-12.4v-42.16h10Z"/>
    <path class="cls-2" d="M997.58,198.91l1.44,4.72s4.56-5.6,13.28-5.6c5.44,0,9.28,2.08,11.44,5.76.8-.72,6.16-5.76,14.56-5.76,9.04,0,13.52,6.08,13.52,15.68v27.36h-12.48v-26.24c0-4.56-1.68-6.88-5.76-6.88-4.4,0-7.52,2.8-7.84,3.12.08.48.16,2.64.16,3.2v26.8h-12.48v-26.24c0-4.56-1.76-6.88-5.84-6.88-4.56,0-7.6,3.12-7.6,3.12v30h-12.4v-42.16h10Z"/>
    <path class="cls-2" d="M1061.98,201.07s6.8-3.04,16.96-3.04c11.04,0,17.92,3.6,17.92,15.04v28h-9.84l-1.04-4.56s-4.48,5.44-13.2,5.44c-7.92,0-13.44-4.48-13.44-12.08,0-8,6.16-13.36,18.4-13.36,2.64,0,5.92.24,6.72.32v-2.64c0-4.32-2.16-6.48-8.4-6.48-7.12,0-12.32,2.8-12.32,2.8l-1.76-9.44ZM1084.46,224.67s-2.16-.48-5.2-.48c-4,0-7.68.8-7.68,4.64,0,3.6,3.12,4.24,5.36,4.24,4.88,0,7.52-3.04,7.52-3.04v-5.36Z"/>
    <path class="cls-2" d="M1131.74,240.11s-4,1.84-10,1.84c-8.48,0-13.76-3.76-13.76-14.96v-18.32h-4.96v-9.76h5.2l1.44-10.88h10.8v10.88h10.8l-.4,9.76h-10.32v18.32c0,3.52,2,5.12,5.36,5.12,2.96,0,4.8-1.12,4.8-1.12l1.04,9.12Z"/>
    <path class="cls-2" d="M1145.5,194.27c-5.04,0-7.04-2.64-7.04-6.32s2-6.24,7.04-6.24,6.96,2.64,6.96,6.24-2,6.32-6.96,6.32ZM1139.26,241.07v-42.16h12.4v42.16h-12.4Z"/>
    <path class="cls-2" d="M1159.5,219.95c0-13.36,7.52-21.92,21.12-21.92s21.2,8.48,21.2,21.92-7.6,22-21.2,22-21.12-8.56-21.12-22ZM1189.42,219.95c0-7.84-2.88-12.32-8.8-12.32s-8.72,4.48-8.72,12.32,2.88,12.4,8.72,12.4,8.8-4.48,8.8-12.4Z"/>
    <path class="cls-2" d="M1219.66,198.91l1.44,4.72s5.12-5.6,13.84-5.6,14,6.08,14,15.68v27.36h-12.4v-26.24c0-4.56-2.08-6.88-6.24-6.88-4.64,0-8.24,3.12-8.24,3.12v30h-12.4v-42.16h10Z"/>
    <path class="cls-2" d="M1275.34,229.71s5.12,2.96,12.8,2.96c4.32,0,6.64-.96,6.64-3.04s-2.32-2.48-7.28-3.92c-7.52-2.16-14.4-5.12-14.4-14.4,0-8.24,5.52-13.28,18-13.28,8.8,0,14,2.64,14,2.64l-2.32,9.2s-4.24-2.4-11.04-2.4c-4.4,0-6.64,1.04-6.64,3.12,0,2.48,3.44,3.04,8.08,4.4,7.6,2.24,13.52,4.96,13.52,13.6s-6.32,13.36-18.8,13.36c-9.68,0-14.88-3.04-14.88-3.04l2.32-9.2Z"/>
    <path class="cls-2" d="M1349.74,239.07s-6.4,2.88-15.6,2.88c-15.52,0-21.2-9.04-21.2-21.36,0-13.84,7.2-22.56,20.48-22.56,12.48,0,18.32,7.76,18.32,17.92,0,3.76-.8,7.68-.8,7.68h-25.52c.4,6.4,4.4,8.96,11.12,8.96s11.52-2.4,11.52-2.4l1.68,8.88ZM1339.74,214.75c0-4.88-2.24-7.76-6.8-7.76s-7.2,2.64-7.52,8.64h14.32v-.88Z"/>
    <path class="cls-2" d="M1370.06,198.91l1.44,4.88c2.72-3.2,7.28-5.76,14.08-5.76l-.4,10.8s-.72-.08-2.24-.08c-6,0-9.6,2.24-10.48,3.36v28.96h-12.4v-42.16h10Z"/>
    <path class="cls-2" d="M1401.18,198.91l6.88,23.6,1.68,9.68,1.76-9.68,6.88-23.6h12.64l-13.2,42.16h-16.08l-13.2-42.16h12.64Z"/>
    <path class="cls-2" d="M1443.18,194.27c-5.04,0-7.04-2.64-7.04-6.32s2-6.24,7.04-6.24,6.96,2.64,6.96,6.24-2,6.32-6.96,6.32ZM1436.94,241.07v-42.16h12.4v42.16h-12.4Z"/>
    <path class="cls-2" d="M1481.02,207.79c-6.56,0-11.44,3.12-11.44,12.24s4.96,12.16,11.52,12.16c4.4,0,7.68-1.36,7.68-1.36l1.76,9.04s-4.72,2.08-11.68,2.08c-13.36,0-21.68-7.52-21.68-21.92s8.4-22,21.92-22c7.04,0,11.44,2,11.44,2l-1.76,9.2s-3.36-1.44-7.76-1.44Z"/>
    <path class="cls-2" d="M1533.18,239.07s-6.4,2.88-15.6,2.88c-15.52,0-21.2-9.04-21.2-21.36,0-13.84,7.2-22.56,20.48-22.56,12.48,0,18.32,7.76,18.32,17.92,0,3.76-.8,7.68-.8,7.68h-25.52c.4,6.4,4.4,8.96,11.12,8.96s11.52-2.4,11.52-2.4l1.68,8.88ZM1523.18,214.75c0-4.88-2.24-7.76-6.8-7.76s-7.2,2.64-7.52,8.64h14.32v-.88Z"/>
  </g>
</svg>