<?xml version="1.0" encoding="UTF-8"?>
<svg id="Layer_1" data-name="Layer 1" xmlns="http://www.w3.org/2000/svg" viewBox="0 0 1700 377.17">
  <defs>
    <style>
      .cls-1 {
        fill: #7e0080;
      }

      .cls-2 {
        isolation: isolate;
      }

      .cls-3 {
        fill: #fff;
      }
    </style>
  </defs>
  <path class="cls-1" d="M1600.34,275.03c-3.93-.14-7.96-.22-11.98-.47-3.85-.24-7.69-.67-11.53-1.05-1.4-.14-2.8-.33-4.19-.59-2.16-.41-3.29-1.57-3.63-3.75-.36-2.3-.65-4.62-.92-6.93-.26-2.27-.49-4.54-.66-6.81-.17-2.31-.34-4.63-.39-6.96-.08-3.65-.14-7.3-.08-10.94.05-3.06.23-6.13.43-9.18.17-2.61.42-5.21.7-7.8.23-2.11.53-4.23.83-6.34.08-.53.23-1.06.39-1.58.49-1.58,1.66-2.37,3.21-2.64,1.54-.26,3.09-.44,4.65-.61,1.93-.22,3.86-.41,5.8-.58,1.78-.16,3.57-.32,5.36-.39,3.77-.15,7.54-.35,11.31-.35,4.06,0,8.13.14,12.19.33,2.96.14,5.92.41,8.87.7,2.41.23,4.8.57,7.21.89.54.08,1.08.26,1.59.46,1.35.55,2.03,1.67,2.29,3.04.26,1.36.45,2.74.61,4.11.27,2.14.51,4.28.73,6.43.16,1.59.32,3.19.39,4.79.17,3.87.39,7.75.4,11.62.02,3.93-.13,7.87-.31,11.81-.14,2.92-.4,5.84-.7,8.75-.27,2.59-.64,5.18-.98,7.77-.06.47-.2.93-.33,1.39-.45,1.68-1.64,2.56-3.29,2.83-1.55.26-3.12.44-4.68.61-1.92.21-3.83.41-5.76.58-1.78.16-3.57.31-5.36.39-4.02.17-8.05.3-12.16.45h0Z"/>
  <g class="cls-2">
    <path class="cls-3" d="M88.41,95.18l.86,3.08c1.66,5.94,8.84,8.18,13.64,4.3,9.76-7.89,26.71-17.8,50.27-17.8,45.22,0,77.14,35.72,77.14,99.56,0,75.62-44.46,109.06-101.84,109.06-8.29,0-15.31-.98-20.71-1.99s-10.47,3.36-10.11,8.93l.02.39c.01.18.02.37.02.55v61.11c0,4.71-3.82,8.53-8.53,8.53h-41.83c-4.71,0-8.53-3.82-8.53-8.53V97.47c0-4.71,3.82-8.53,8.53-8.53h32.87c3.83,0,7.19,2.55,8.22,6.24ZM97.69,236.67c0,3.85,2.57,7.21,6.28,8.23,4.94,1.36,12.43,2.88,21.09,2.88,31.16,0,46.36-19,46.36-58.52,0-35.34-12.54-57-38-57-14.86,0-26.93,7.77-32.46,12.06-2.07,1.61-3.26,4.09-3.26,6.71v85.64Z"/>
    <path class="cls-3" d="M259.19,188.88c0-63.46,35.72-104.12,100.32-104.12s100.7,40.28,100.7,104.12-36.1,104.5-100.7,104.5-100.32-40.66-100.32-104.5ZM401.31,188.88c0-37.24-13.68-58.52-41.8-58.52s-41.42,21.28-41.42,58.52,13.68,58.9,41.42,58.9,41.8-21.28,41.8-58.9Z"/>
    <rect class="cls-3" x="493.65" y="94.43" width="58.9" height="200.26" rx="10.11" ry="10.11"/>
    <path class="cls-3" d="M599.45,254.18c2.38-9.44,12.27-14.96,21.51-11.91,10.64,3.51,25.83,7.03,44.07,7.03,20.52,0,31.54-4.56,31.54-14.44s-11.02-11.78-34.58-18.62c-35.72-10.26-68.4-24.32-68.4-68.4,0-39.14,26.22-63.08,85.5-63.08,22.32,0,39.77,3.58,51.18,6.91,8.7,2.54,13.84,11.5,11.62,20.29l-2.67,10.6c-2.33,9.25-11.86,14.72-21.02,12.05s-21.22-5.01-36.07-5.01c-20.9,0-31.54,4.94-31.54,14.82,0,11.78,16.34,14.44,38.38,20.9,36.1,10.64,64.22,23.56,64.22,64.6s-30.02,63.46-89.3,63.46c-25.4,0-44.31-4.41-56.15-8.35-8.36-2.79-13.16-11.55-11-20.1l2.71-10.75Z"/>
  </g>
  <g>
    <path class="cls-3" d="M808.95,124.47l1.36,4.88s4.4-5.76,12.64-5.76c9.52,0,16.24,7.52,16.24,20.96,0,15.92-9.36,22.96-21.44,22.96-3.44,0-5.84-.8-6.64-.88l.16,2.48v14.72h-12.4v-59.36h10.08ZM811.27,156.87s2.48,1.04,5.76,1.04c6.56,0,9.76-4,9.76-12.32,0-7.44-2.64-12-8-12-4.32,0-7.52,3.12-7.52,3.12v20.16Z"/>
    <path class="cls-3" d="M867.19,165.91c-.8.48-3.44,1.6-7.84,1.6-9.52,0-12.32-5.6-12.32-13.44v-45.92h12.4v44.56c0,3.84,1.52,5.12,4.4,5.12,1.76,0,2.8-.4,2.8-.4l.56,8.48Z"/>
    <path class="cls-3" d="M875.02,126.63s6.8-3.04,16.96-3.04c11.04,0,17.92,3.6,17.92,15.04v28h-9.84l-1.04-4.56s-4.48,5.44-13.2,5.44c-7.92,0-13.44-4.48-13.44-12.08,0-8,6.16-13.36,18.4-13.36,2.64,0,5.92.24,6.72.32v-2.64c0-4.32-2.16-6.48-8.4-6.48-7.12,0-12.32,2.8-12.32,2.8l-1.76-9.44h0ZM897.5,150.23s-2.16-.48-5.2-.48c-4,0-7.68.8-7.68,4.64,0,3.6,3.12,4.24,5.36,4.24,4.88,0,7.52-3.04,7.52-3.04v-5.36h0Z"/>
    <path class="cls-3" d="M941.19,133.35c-6.56,0-11.44,3.12-11.44,12.24s4.96,12.16,11.52,12.16c4.4,0,7.68-1.36,7.68-1.36l1.76,9.04s-4.72,2.08-11.68,2.08c-13.36,0-21.68-7.52-21.68-21.92s8.4-22,21.92-22c7.04,0,11.44,2,11.44,2l-1.76,9.2s-3.36-1.44-7.76-1.44Z"/>
    <path class="cls-3" d="M993.35,164.63s-6.4,2.88-15.6,2.88c-15.52,0-21.2-9.04-21.2-21.36,0-13.84,7.2-22.56,20.48-22.56,12.48,0,18.32,7.76,18.32,17.92,0,3.76-.8,7.68-.8,7.68h-25.52c.4,6.4,4.4,8.96,11.12,8.96s11.52-2.4,11.52-2.4l1.68,8.88h0ZM983.35,140.31c0-4.88-2.24-7.76-6.8-7.76s-7.2,2.64-7.52,8.64h14.32v-.88Z"/>
    <path class="cls-3" d="M1013.66,124.47l1.44,4.72s4.56-5.6,13.28-5.6c5.44,0,9.28,2.08,11.44,5.76.8-.72,6.16-5.76,14.56-5.76,9.04,0,13.52,6.08,13.52,15.68v27.36h-12.48v-26.24c0-4.56-1.68-6.88-5.76-6.88-4.4,0-7.52,2.8-7.84,3.12.08.48.16,2.64.16,3.2v26.8h-12.48v-26.24c0-4.56-1.76-6.88-5.84-6.88-4.56,0-7.6,3.12-7.6,3.12v30h-12.4v-42.16h10,0Z"/>
    <path class="cls-3" d="M1112.06,164.63s-6.4,2.88-15.6,2.88c-15.52,0-21.2-9.04-21.2-21.36,0-13.84,7.2-22.56,20.48-22.56,12.48,0,18.32,7.76,18.32,17.92,0,3.76-.8,7.68-.8,7.68h-25.52c.4,6.4,4.4,8.96,11.12,8.96s11.52-2.4,11.52-2.4l1.68,8.88h0ZM1102.06,140.31c0-4.88-2.24-7.76-6.8-7.76s-7.2,2.64-7.52,8.64h14.32v-.88h0Z"/>
    <path class="cls-3" d="M1132.38,124.47l1.44,4.72s5.12-5.6,13.84-5.6,14,6.08,14,15.68v27.36h-12.4v-26.24c0-4.56-2.08-6.88-6.24-6.88-4.64,0-8.24,3.12-8.24,3.12v30h-12.4v-42.16h10Z"/>
    <path class="cls-3" d="M1196.46,165.67s-4,1.84-10,1.84c-8.48,0-13.76-3.76-13.76-14.96v-18.32h-4.96v-9.76h5.2l1.44-10.88h10.8v10.88h10.8l-.4,9.76h-10.32v18.32c0,3.52,2,5.12,5.36,5.12,2.96,0,4.8-1.12,4.8-1.12l1.04,9.12h0Z"/>
    <path class="cls-3" d="M1219.02,145.51c0-13.36,7.52-21.92,21.12-21.92s21.2,8.48,21.2,21.92-7.6,22-21.2,22-21.12-8.56-21.12-22ZM1248.94,145.51c0-7.84-2.88-12.32-8.8-12.32s-8.72,4.48-8.72,12.32,2.88,12.4,8.72,12.4,8.8-4.48,8.8-12.4Z"/>
    <path class="cls-3" d="M1279.26,124.47l1.36,4.88s4.4-5.76,12.64-5.76c9.52,0,16.24,7.52,16.24,20.96,0,15.92-9.36,22.96-21.44,22.96-3.44,0-5.84-.8-6.64-.88l.16,2.48v14.72h-12.4v-59.36h10.08ZM1281.58,156.87s2.48,1.04,5.76,1.04c6.56,0,9.76-4,9.76-12.32,0-7.44-2.64-12-8-12-4.32,0-7.52,3.12-7.52,3.12v20.16Z"/>
    <path class="cls-3" d="M1327.42,124.47l1.36,4.88s4.4-5.76,12.64-5.76c9.52,0,16.24,7.52,16.24,20.96,0,15.92-9.36,22.96-21.44,22.96-3.44,0-5.84-.8-6.64-.88l.16,2.48v14.72h-12.4v-59.36h10.08ZM1329.74,156.87s2.48,1.04,5.76,1.04c6.56,0,9.76-4,9.76-12.32,0-7.44-2.64-12-8-12-4.32,0-7.52,3.12-7.52,3.12v20.16Z"/>
    <path class="cls-3" d="M1363.74,145.51c0-13.36,7.52-21.92,21.12-21.92s21.2,8.48,21.2,21.92-7.6,22-21.2,22-21.12-8.56-21.12-22ZM1393.66,145.51c0-7.84-2.88-12.32-8.8-12.32s-8.72,4.48-8.72,12.32,2.88,12.4,8.72,12.4,8.8-4.48,8.8-12.4Z"/>
    <path class="cls-3" d="M1423.9,124.47l1.44,4.88c2.72-3.2,7.28-5.76,14.08-5.76l-.4,10.8s-.72-.08-2.24-.08c-6,0-9.6,2.24-10.48,3.36v28.96h-12.4v-42.16h10Z"/>
    <path class="cls-3" d="M1471.74,165.67s-4,1.84-10,1.84c-8.48,0-13.76-3.76-13.76-14.96v-18.32h-4.96v-9.76h5.2l1.44-10.88h10.8v10.88h10.8l-.4,9.76h-10.32v18.32c0,3.52,2,5.12,5.36,5.12,2.96,0,4.8-1.12,4.8-1.12l1.04,9.12h0Z"/>
    <path class="cls-3" d="M1491.26,124.47v26.24c0,4.56,2.08,6.88,6.24,6.88,4.64,0,8.24-3.12,8.24-3.12v-30h12.4v42.16h-10l-1.44-4.72s-5.12,5.6-13.84,5.6-14-6.08-14-15.68v-27.36h12.4,0Z"/>
    <path class="cls-3" d="M1537.66,124.47l1.44,4.72s5.12-5.6,13.84-5.6,14,6.08,14,15.68v27.36h-12.4v-26.24c0-4.56-2.08-6.88-6.24-6.88-4.64,0-8.24,3.12-8.24,3.12v30h-12.4v-42.16h10Z"/>
    <path class="cls-3" d="M1582.3,119.83c-5.04,0-7.04-2.64-7.04-6.32s2-6.24,7.04-6.24,6.96,2.64,6.96,6.24-2,6.32-6.96,6.32ZM1576.06,166.63v-42.16h12.4v42.16h-12.4Z"/>
    <path class="cls-3" d="M1623.74,165.67s-4,1.84-10,1.84c-8.48,0-13.76-3.76-13.76-14.96v-18.32h-4.96v-9.76h5.2l1.44-10.88h10.8v10.88h10.8l-.4,9.76h-10.32v18.32c0,3.52,2,5.12,5.36,5.12,2.96,0,4.8-1.12,4.8-1.12l1.04,9.12h0Z"/>
    <path class="cls-3" d="M1629.33,173.43s1.84.8,4.48.8c6.56,0,7.92-5.36,8.8-7.76l-15.04-42h12.96l6.4,22.72,1.6,9.04,8.88-31.76h12.48l-15.36,43.44c-3.76,10.48-8.88,15.92-19.28,15.92-4.4,0-7.36-.96-7.36-.96l1.44-9.44h0Z"/>
    <path class="cls-3" d="M805.11,215.83c-5.04,0-7.04-2.64-7.04-6.32s2-6.24,7.04-6.24,6.96,2.64,6.96,6.24-2,6.32-6.96,6.32ZM798.87,262.63v-42.16h12.4v42.16h-12.4Z"/>
    <path class="cls-3" d="M830.87,220.47l1.44,4.72s5.12-5.6,13.84-5.6,14,6.08,14,15.68v27.36h-12.4v-26.24c0-4.56-2.08-6.88-6.24-6.88-4.64,0-8.24,3.12-8.24,3.12v30h-12.4v-42.16h10Z"/>
    <path class="cls-3" d="M871.19,262.63v-32.4h-4.96v-9.76h4.96v-1.84c0-13.2,8.96-15.36,17.2-15.36,4.96,0,8.08,1.12,8.08,1.12l-1.68,9.36s-1.68-.8-4.4-.8c-4.16,0-6.8.96-6.8,6.08v1.44h11.28v9.76h-11.28v32.4h-12.4Z"/>
    <path class="cls-3" d="M899.59,241.51c0-13.36,7.52-21.92,21.12-21.92s21.2,8.48,21.2,21.92-7.6,22-21.2,22-21.12-8.56-21.12-22ZM929.51,241.51c0-7.84-2.88-12.32-8.8-12.32s-8.72,4.48-8.72,12.32,2.88,12.4,8.72,12.4,8.8-4.48,8.8-12.4h0Z"/>
    <path class="cls-3" d="M959.75,220.47l1.44,4.88c2.72-3.2,7.28-5.76,14.08-5.76l-.4,10.8s-.72-.08-2.24-.08c-6,0-9.6,2.24-10.48,3.36v28.96h-12.4v-42.16h10Z"/>
    <path class="cls-3" d="M991.9,220.47l1.44,4.72s4.56-5.6,13.28-5.6c5.44,0,9.28,2.08,11.44,5.76.8-.72,6.16-5.76,14.56-5.76,9.04,0,13.52,6.08,13.52,15.68v27.36h-12.48v-26.24c0-4.56-1.68-6.88-5.76-6.88-4.4,0-7.52,2.8-7.84,3.12.08.48.16,2.64.16,3.2v26.8h-12.48v-26.24c0-4.56-1.76-6.88-5.84-6.88-4.56,0-7.6,3.12-7.6,3.12v30h-12.4v-42.16h10,0Z"/>
    <path class="cls-3" d="M1056.3,222.63s6.8-3.04,16.96-3.04c11.04,0,17.92,3.6,17.92,15.04v28h-9.84l-1.04-4.56s-4.48,5.44-13.2,5.44c-7.92,0-13.44-4.48-13.44-12.08,0-8,6.16-13.36,18.4-13.36,2.64,0,5.92.24,6.72.32v-2.64c0-4.32-2.16-6.48-8.4-6.48-7.12,0-12.32,2.8-12.32,2.8l-1.76-9.44h0ZM1078.78,246.23s-2.16-.48-5.2-.48c-4,0-7.68.8-7.68,4.64,0,3.6,3.12,4.24,5.36,4.24,4.88,0,7.52-3.04,7.52-3.04v-5.36h0Z"/>
    <path class="cls-3" d="M1126.06,261.67s-4,1.84-10,1.84c-8.48,0-13.76-3.76-13.76-14.96v-18.32h-4.96v-9.76h5.2l1.44-10.88h10.8v10.88h10.8l-.4,9.76h-10.32v18.32c0,3.52,2,5.12,5.36,5.12,2.96,0,4.8-1.12,4.8-1.12l1.04,9.12h0Z"/>
    <path class="cls-3" d="M1139.82,215.83c-5.04,0-7.04-2.64-7.04-6.32s2-6.24,7.04-6.24,6.96,2.64,6.96,6.24-2,6.32-6.96,6.32ZM1133.58,262.63v-42.16h12.4v42.16h-12.4Z"/>
    <path class="cls-3" d="M1153.82,241.51c0-13.36,7.52-21.92,21.12-21.92s21.2,8.48,21.2,21.92-7.6,22-21.2,22-21.12-8.56-21.12-22ZM1183.74,241.51c0-7.84-2.88-12.32-8.8-12.32s-8.72,4.48-8.72,12.32,2.88,12.4,8.72,12.4,8.8-4.48,8.8-12.4h0Z"/>
    <path class="cls-3" d="M1213.98,220.47l1.44,4.72s5.12-5.6,13.84-5.6,14,6.08,14,15.68v27.36h-12.4v-26.24c0-4.56-2.08-6.88-6.24-6.88-4.64,0-8.24,3.12-8.24,3.12v30h-12.4v-42.16h10Z"/>
    <path class="cls-3" d="M1269.66,251.27s5.12,2.96,12.8,2.96c4.32,0,6.64-.96,6.64-3.04s-2.32-2.48-7.28-3.92c-7.52-2.16-14.4-5.12-14.4-14.4,0-8.24,5.52-13.28,18-13.28,8.8,0,14,2.64,14,2.64l-2.32,9.2s-4.24-2.4-11.04-2.4c-4.4,0-6.64,1.04-6.64,3.12,0,2.48,3.44,3.04,8.08,4.4,7.6,2.24,13.52,4.96,13.52,13.6s-6.32,13.36-18.8,13.36c-9.68,0-14.88-3.04-14.88-3.04l2.32-9.2h0Z"/>
    <path class="cls-3" d="M1344.06,260.63s-6.4,2.88-15.6,2.88c-15.52,0-21.2-9.04-21.2-21.36,0-13.84,7.2-22.56,20.48-22.56,12.48,0,18.32,7.76,18.32,17.92,0,3.76-.8,7.68-.8,7.68h-25.52c.4,6.4,4.4,8.96,11.12,8.96s11.52-2.4,11.52-2.4l1.68,8.88h0ZM1334.06,236.31c0-4.88-2.24-7.76-6.8-7.76s-7.2,2.64-7.52,8.64h14.32v-.88h0Z"/>
    <path class="cls-3" d="M1364.38,220.47l1.44,4.88c2.72-3.2,7.28-5.76,14.08-5.76l-.4,10.8s-.72-.08-2.24-.08c-6,0-9.6,2.24-10.48,3.36v28.96h-12.4v-42.16h10Z"/>
    <path class="cls-3" d="M1395.5,220.47l6.88,23.6,1.68,9.68,1.76-9.68,6.88-23.6h12.64l-13.2,42.16h-16.08l-13.2-42.16h12.64,0Z"/>
    <path class="cls-3" d="M1437.5,215.83c-5.04,0-7.04-2.64-7.04-6.32s2-6.24,7.04-6.24,6.96,2.64,6.96,6.24-2,6.32-6.96,6.32ZM1431.26,262.63v-42.16h12.4v42.16h-12.4Z"/>
    <path class="cls-3" d="M1475.34,229.35c-6.56,0-11.44,3.12-11.44,12.24s4.96,12.16,11.52,12.16c4.4,0,7.68-1.36,7.68-1.36l1.76,9.04s-4.72,2.08-11.68,2.08c-13.36,0-21.68-7.52-21.68-21.92s8.4-22,21.92-22c7.04,0,11.44,2,11.44,2l-1.76,9.2s-3.36-1.44-7.76-1.44Z"/>
    <path class="cls-3" d="M1527.5,260.63s-6.4,2.88-15.6,2.88c-15.52,0-21.2-9.04-21.2-21.36,0-13.84,7.2-22.56,20.48-22.56,12.48,0,18.32,7.76,18.32,17.92,0,3.76-.8,7.68-.8,7.68h-25.52c.4,6.4,4.4,8.96,11.12,8.96s11.52-2.4,11.52-2.4l1.68,8.88h0ZM1517.5,236.31c0-4.88-2.24-7.76-6.8-7.76s-7.2,2.64-7.52,8.64h14.32v-.88h0Z"/>
  </g>
  <path class="cls-1" d="M523.02,74c-3.46-.12-7-.18-10.54-.39-3.39-.2-6.76-.56-10.14-.87-1.23-.11-2.47-.27-3.69-.49-1.9-.34-2.89-1.31-3.19-3.14-.31-1.93-.57-3.86-.81-5.8-.23-1.89-.43-3.79-.58-5.7-.15-1.93-.3-3.87-.34-5.82-.07-3.05-.12-6.1-.07-9.15.04-2.56.2-5.13.38-7.68.15-2.18.37-4.35.62-6.52.2-1.77.47-3.54.73-5.3.07-.44.2-.89.34-1.32.43-1.32,1.46-1.98,2.82-2.2,1.35-.22,2.72-.37,4.09-.51,1.7-.18,3.4-.34,5.1-.49,1.57-.13,3.14-.27,4.71-.32,3.32-.13,6.63-.29,9.95-.29,3.57,0,7.15.12,10.72.28,2.61.11,5.21.34,7.8.58,2.12.2,4.23.48,6.34.75.47.06.95.22,1.4.39,1.19.46,1.79,1.4,2.01,2.54.23,1.13.39,2.29.54,3.43.23,1.79.45,3.58.64,5.37.14,1.33.28,2.67.35,4,.15,3.24.34,6.47.35,9.71.01,3.29-.11,6.58-.27,9.87-.12,2.44-.35,4.88-.61,7.32-.23,2.17-.56,4.33-.86,6.49-.05.39-.18.78-.29,1.17-.4,1.41-1.45,2.14-2.89,2.37-1.37.22-2.75.37-4.12.51-1.69.18-3.37.34-5.07.48-1.57.13-3.14.26-4.71.33-3.54.15-7.08.25-10.7.38h0Z"/>
</svg>