<?xml version="1.0" encoding="UTF-8"?>
<svg id="Layer_2" data-name="Layer 2" xmlns="http://www.w3.org/2000/svg" viewBox="0 0 669.21 164.69">
  <defs>
    <style>
      .cls-1 {
        fill: #fff;
      }

      .cls-2 {
        fill: #7b287d;
      }
    </style>
  </defs>
  <g id="Layer_1-2" data-name="Layer 1">
    <g>
      <path class="cls-1" d="M88.55,157.53c.08.74-.34,1.44-1.02,1.73-3.22,1.39-13.02,5.08-26.45,5.08-23.4,0-37.98-11.46-37.98-45.6v-54.14c0-.94-.76-1.7-1.7-1.7h-10.3c-.94,0-11.11.08-11.11-.85l.76-27.66c0-.94.95-1.05,10.34-1.23h12.01c.86,0,1.82-1.23,1.92-2.08l.78-29.35c.1-.85.71-1.73,1.57-1.73h28.46c.94,0,1.7.76,1.7,1.7v29.77c0,.94.76,1.7,1.7,1.7h26.35c.96,0,1.73.8,1.69,1.76l-.98,26.36c-.03.91-.78,1.63-1.69,1.63h-25.15c-.94,0-1.7.76-1.7,1.7v54.14c0,10.73,5.52,15.61,14.79,15.61,5.04,0,8.91-1.3,11.13-2.3,1.06-.47,2.26.22,2.38,1.37l2.49,24.1Z"/>
      <path class="cls-1" d="M147.01,32.37l23.56,37.75c.79,1.27,2.63,1.27,3.42,0l23.56-37.75c.37-.59,1.02-.95,1.71-.95h35.86c1.6,0,2.56,1.77,1.69,3.11l-40.47,62.58c-.44.67-.43,1.54.01,2.21l40.64,61.31c.89,1.34-.07,3.13-1.68,3.13h-35.83c-.69,0-1.32-.35-1.7-.92l-23.82-36.87c-.8-1.23-2.6-1.23-3.4,0l-23.58,36.86c-.37.58-1.01.93-1.7.93h-35.83c-1.61,0-2.57-1.79-1.69-3.13l40.41-61.32c.44-.67.44-1.53,0-2.21l-40.47-62.58c-.87-1.34.1-3.11,1.69-3.11h35.86c.7,0,1.34.36,1.71.95Z"/>
      <path class="cls-1" d="M321.31,57.73c-20.45,0-35.66,9.73-35.66,38.16s15.46,37.91,35.91,37.91c8.72,0,16.03-1.71,20.2-2.96,2.03-.61,4.13.68,4.53,2.75l4.13,21.19c.34,1.75-.65,3.48-2.33,4.07-5.31,1.85-17.51,5.38-33.5,5.38-41.65,0-67.59-23.44-67.59-68.34s26.19-68.59,68.34-68.59c16.03,0,27.67,3.33,32.78,5.12,1.67.59,2.65,2.31,2.32,4.05l-4.14,21.65c-.4,2.1-2.53,3.39-4.57,2.75-4.24-1.32-11.66-3.15-20.4-3.15Z"/>
      <path class="cls-1" d="M403.19,30.51c2.02,0,3.66,1.64,3.66,3.66v78.15c0,14.22,6.48,21.45,19.45,21.45,11.36,0,20.72-6,24.21-8.57.93-.69,1.48-1.78,1.48-2.93V34.16c0-2.02,1.64-3.66,3.66-3.66h31.35c2.02,0,3.66,1.64,3.66,3.66v124.13c0,2.02-1.64,3.66-3.66,3.66h-24.81c-1.61,0-3.03-1.05-3.5-2.59l-2.02-6.63c-.76-2.48-3.77-3.4-5.79-1.78-6.38,5.13-19.94,13.74-39.03,13.74-28.43,0-43.65-18.95-43.65-48.88V34.16c0-2.02,1.64-3.66,3.66-3.66h31.35Z"/>
      <path class="cls-1" d="M620.09,153.04c.25,1.3-.46,2.59-1.7,3.07-5.85,2.25-23.33,8.12-46.52,8.12-48.38,0-66.09-28.18-66.09-66.59,0-43.15,22.45-70.33,63.85-70.33,38.91,0,57.11,24.19,57.11,55.87,0,8.67-1.36,17.6-2.07,21.68-.23,1.31-1.37,2.27-2.7,2.27h-74.26c-1.64,0-2.94,1.43-2.73,3.06,2.3,17.71,14.53,24.87,34.38,24.87,15.59,0,27.5-3.95,32.83-6.11,1.61-.65,3.4.33,3.73,2.03l4.18,22.08ZM589.33,79.43c0-15.21-6.98-24.19-21.2-24.19-12.96,0-21.46,7.34-23.21,23.92-.17,1.61,1.12,3.01,2.74,3.01h38.93c1.52,0,2.74-1.23,2.74-2.74h0Z"/>
      <path class="cls-2" d="M654.86,160.31c-1.68-.06-3.4-.09-5.12-.2-1.65-.1-3.29-.29-4.93-.45-.6-.06-1.2-.14-1.79-.25-.92-.17-1.41-.67-1.55-1.6-.15-.98-.28-1.97-.4-2.96-.11-.97-.21-1.94-.28-2.91-.07-.99-.15-1.98-.17-2.97-.04-1.56-.06-3.12-.03-4.68.02-1.31.1-2.62.18-3.93.07-1.11.18-2.23.3-3.33.1-.9.23-1.81.35-2.71.03-.23.1-.45.17-.67.21-.67.71-1.01,1.37-1.13.66-.11,1.32-.19,1.99-.26.83-.09,1.65-.17,2.48-.25.76-.07,1.53-.14,2.29-.17,1.61-.06,3.22-.15,4.84-.15,1.74,0,3.48.06,5.21.14,1.27.06,2.53.17,3.79.3,1.03.1,2.05.24,3.08.38.23.03.46.11.68.2.58.24.87.72.98,1.3.11.58.19,1.17.26,1.76.11.91.22,1.83.31,2.75.07.68.14,1.36.17,2.05.07,1.66.17,3.31.17,4.97,0,1.68-.06,3.37-.13,5.05-.06,1.25-.17,2.49-.3,3.74-.11,1.11-.27,2.21-.42,3.32-.03.2-.09.4-.14.6-.19.72-.7,1.09-1.41,1.21-.66.11-1.33.19-2,.26-.82.09-1.64.17-2.46.25-.76.07-1.53.13-2.29.17-1.72.07-3.44.13-5.2.19h0Z"/>
    </g>
  </g>
</svg>